<?xml version="1.0" standalone="no"?>
<!DOCTYPE svg PUBLIC "-//W3C//DTD SVG 20010904//EN"
 "http://www.w3.org/TR/2001/REC-SVG-20010904/DTD/svg10.dtd">
<svg version="1.0" xmlns="http://www.w3.org/2000/svg"
 width="1080.000000pt" height="1080.000000pt" viewBox="0 0 1080.000000 1080.000000"
 preserveAspectRatio="xMidYMid meet">

<g transform="translate(0.000000,1080.000000) scale(0.100000,-0.100000)"
fill="#000000" stroke="none">
<path d="M2690 9018 c-1 -7 -74 -607 -164 -1333 -89 -726 -161 -1323 -159
-1327 2 -5 346 -8 764 -8 417 0 759 3 759 8 0 4 7 54 15 112 8 58 15 120 15
138 l0 32 -586 0 -586 0 6 38 c3 20 28 224 56 452 28 228 52 421 55 428 3 9
108 12 475 12 258 0 470 3 470 8 0 4 7 52 15 107 8 55 15 112 15 128 l0 27
-464 0 c-292 0 -467 4 -471 10 -8 13 96 872 108 888 7 9 137 12 588 12 l579 0
4 23 c3 12 10 65 16 117 6 52 13 105 16 118 l4 22 -765 0 c-605 0 -765 -3
-765 -12z"/>
<path d="M4514 6590 c-107 -21 -194 -91 -240 -193 -36 -81 -45 -208 -19 -287
35 -106 115 -163 227 -163 73 0 154 31 196 76 l22 24 -20 18 c-17 16 -24 17
-38 7 -40 -29 -100 -52 -139 -52 -114 0 -182 78 -183 212 0 214 177 351 342
261 l49 -27 21 22 c21 21 21 22 4 41 -43 48 -145 75 -222 61z"/>
<path d="M6475 6591 c-59 -10 -133 -49 -176 -94 -96 -98 -131 -276 -80 -408
15 -41 70 -98 115 -121 54 -28 153 -28 216 0 64 29 105 65 97 86 -10 25 -36
30 -57 11 -53 -48 -161 -58 -226 -20 -59 35 -84 89 -84 186 0 102 22 162 80
220 75 75 165 89 258 42 l53 -27 20 20 20 21 -32 31 c-47 45 -125 66 -204 53z"/>
<path d="M8264 6590 c-103 -21 -194 -92 -241 -189 -36 -75 -45 -227 -18 -298
54 -140 204 -197 346 -129 31 14 64 35 74 46 32 36 -9 78 -45 45 -51 -46 -163
-58 -219 -24 -72 43 -96 106 -89 222 13 199 176 311 337 231 l53 -27 20 21 21
20 -34 31 c-50 46 -130 66 -205 51z"/>
<path d="M5036 6553 c-3 -21 -19 -153 -36 -293 -17 -140 -32 -267 -35 -282
l-4 -28 163 0 c161 0 164 0 170 23 12 47 13 47 -120 47 l-126 0 6 38 c3 20 17
132 31 247 14 116 28 227 31 248 l6 37 -40 0 c-39 0 -40 -1 -46 -37z"/>
<path d="M5597 6278 c-21 -172 -38 -316 -37 -321 0 -4 80 -6 178 -5 l177 3 3
33 3 32 -137 0 -137 0 7 73 c4 39 10 89 13 109 l5 37 112 3 111 3 3 28 3 27
-111 0 -111 0 6 48 c3 26 9 74 13 107 l7 60 135 3 c140 3 150 6 150 50 0 22 0
22 -178 22 l-178 0 -37 -312z"/>
<path d="M6930 6555 l0 -35 90 0 c79 0 90 -2 90 -17 -1 -10 -15 -137 -33 -283
l-33 -265 34 -3 c19 -2 37 -1 40 3 5 5 70 502 72 548 0 15 11 17 95 17 87 0
95 2 95 19 0 11 3 26 6 35 5 14 -18 16 -225 16 l-231 0 0 -35z"/>
<path d="M7650 6578 c0 -7 -16 -143 -35 -301 -19 -159 -35 -297 -35 -308 0
-15 7 -19 38 -19 l38 0 37 313 c21 171 37 315 37 320 0 13 -80 8 -80 -5z"/>
<path d="M1766 5831 c-4 -5 -78 -596 -166 -1313 -88 -716 -162 -1315 -164
-1330 l-5 -28 764 0 764 0 5 33 c12 69 26 190 26 218 l0 29 -586 0 -586 0 6
38 c9 59 106 860 106 877 0 13 55 15 475 15 261 0 475 3 475 8 0 4 7 52 15
107 8 55 15 115 15 133 l0 32 -470 0 c-296 0 -470 4 -470 10 0 18 101 845 105
868 l5 22 585 0 c322 0 585 1 586 3 6 19 35 274 32 280 -6 11 -1511 9 -1517
-2z"/>
<path d="M4867 3520 c-101 -26 -181 -95 -230 -198 -30 -63 -32 -74 -32 -182 0
-102 3 -120 24 -160 53 -101 110 -135 226 -134 86 0 143 19 197 66 27 23 28
23 9 47 l-18 24 -34 -25 c-84 -62 -193 -64 -257 -5 -50 46 -66 95 -66 192 0
118 26 185 93 248 80 75 188 88 272 33 l42 -28 21 21 c27 27 15 48 -47 79 -51
27 -141 36 -200 22z"/>
<path d="M7027 3519 c-116 -27 -207 -118 -247 -247 -39 -126 -21 -263 46 -340
56 -65 104 -86 199 -86 97 0 152 21 223 88 62 58 100 135 114 235 35 237 -122
400 -335 350z m150 -80 c30 -15 52 -35 71 -67 25 -43 27 -56 27 -152 0 -88 -4
-113 -23 -155 -45 -97 -124 -154 -215 -155 -126 0 -191 81 -190 240 1 140 51
237 146 285 63 31 125 33 184 4z"/>
<path d="M9144 3513 c-102 -30 -197 -129 -231 -242 -11 -34 -17 -89 -17 -141
0 -129 45 -213 139 -263 61 -33 182 -30 250 6 88 47 96 57 70 91 -14 19 -15
18 -52 -7 -79 -54 -158 -63 -225 -25 -60 34 -90 93 -96 188 -11 199 105 348
264 338 48 -3 70 -10 97 -31 43 -33 51 -33 71 -5 15 21 14 24 -11 50 -51 53
-160 71 -259 41z"/>
<path d="M3390 3513 c0 -5 -18 -154 -40 -333 -22 -179 -40 -326 -40 -327 0 -2
79 -3 175 -3 l175 0 0 35 0 35 -130 0 -130 0 5 38 c11 76 65 528 65 545 0 13
-9 17 -40 17 -22 0 -40 -3 -40 -7z"/>
<path d="M3976 3213 c-20 -170 -39 -320 -42 -335 l-6 -28 191 0 191 0 0 35 0
35 -143 0 -144 0 13 103 c7 56 13 108 14 115 0 9 31 12 120 12 l120 0 0 35 0
35 -116 0 -116 0 6 38 c3 20 8 64 12 97 10 103 -4 95 160 95 135 0 144 1 144
19 0 11 3 26 6 35 5 14 -15 16 -183 16 l-190 0 -37 -307z"/>
<path d="M5368 3485 l-4 -35 99 0 99 0 -6 -37 c-9 -57 -66 -531 -66 -548 0
-11 11 -15 39 -15 46 0 38 -34 82 333 l32 267 99 0 c90 0 98 2 98 19 0 11 3
26 6 35 6 14 -19 16 -234 16 l-240 0 -4 -35z"/>
<path d="M6086 3213 c-20 -169 -39 -321 -42 -336 -6 -28 -5 -28 38 -25 l43 3
17 130 c9 72 17 134 17 138 1 4 22 7 48 5 l48 -3 70 -135 70 -135 48 -3 c26
-2 47 -1 47 1 0 2 -35 69 -78 148 l-78 145 50 25 c72 35 111 100 111 185 0
121 -55 157 -246 162 l-126 4 -37 -309z m301 204 c23 -23 28 -36 27 -77 -1
-93 -61 -140 -176 -140 -52 0 -68 3 -68 14 0 16 17 152 26 205 l5 33 79 -4
c71 -3 83 -6 107 -31z"/>
<path d="M7706 3483 c-7 -46 -76 -610 -76 -623 0 -6 15 -10 34 -10 41 0 36
-20 72 283 24 200 30 236 41 221 7 -9 69 -119 139 -243 70 -124 133 -234 142
-243 22 -26 60 -23 67 5 7 32 75 598 75 625 0 19 -5 22 -35 22 -19 0 -35 -5
-35 -10 0 -21 -62 -505 -65 -508 -1 -2 -34 52 -72 120 -38 68 -104 185 -147
261 -71 126 -80 137 -106 137 -25 0 -29 -4 -34 -37z"/>
<path d="M8546 3498 c-6 -28 -76 -611 -76 -633 0 -11 11 -15 40 -15 22 0 40 2
40 5 0 8 68 569 75 623 l6 42 -40 0 c-34 0 -41 -4 -45 -22z"/>
</g>
</svg>
