<?xml version="1.0" standalone="no"?>
<!DOCTYPE svg PUBLIC "-//W3C//DTD SVG 20010904//EN"
 "http://www.w3.org/TR/2001/REC-SVG-20010904/DTD/svg10.dtd">
<svg version="1.0" xmlns="http://www.w3.org/2000/svg"
 width="1080.000000pt" height="1080.000000pt" viewBox="0 0 1080.000000 1080.000000"
 preserveAspectRatio="xMidYMid meet">

<g transform="translate(0.000000,1080.000000) scale(0.100000,-0.100000)"
fill="#000000" stroke="none">
<path d="M4990 10604 c-663 -55 -1306 -233 -1895 -524 -835 -412 -1543 -1038
-2058 -1820 -347 -528 -578 -1074 -731 -1725 -29 -123 -65 -340 -93 -550 -26
-205 -26 -964 0 -1170 66 -508 169 -913 344 -1355 402 -1017 1153 -1909 2103
-2500 643 -399 1339 -640 2155 -747 205 -26 965 -26 1170 0 329 43 624 104
915 188 155 45 511 180 682 259 1084 499 1980 1375 2508 2455 256 523 413
1060 497 1700 26 205 26 964 0 1170 -114 878 -380 1604 -841 2300 -541 815
-1319 1476 -2206 1876 -130 58 -425 171 -575 219 -170 54 -482 129 -670 160
-367 61 -382 62 -835 65 -234 1 -445 1 -470 -1z m-776 -1621 c-4 -32 -12 -96
-18 -143 l-11 -85 -587 -3 -587 -2 -6 -33 c-7 -43 -105 -845 -105 -863 0 -12
71 -14 475 -14 l475 0 -4 -22 c-3 -13 -10 -63 -16 -113 -6 -49 -13 -100 -16
-112 l-4 -23 -471 0 c-367 0 -471 -3 -474 -12 -3 -7 -27 -200 -55 -428 -27
-228 -53 -432 -56 -452 l-6 -38 586 0 c321 0 587 -3 589 -7 3 -6 -26 -261 -32
-280 -1 -2 -345 -3 -766 -3 l-764 0 4 28 c3 15 77 616 166 1336 88 720 162
1313 165 1318 3 4 347 8 765 8 l760 0 -7 -57z m462 -2411 c21 -11 48 -30 58
-41 20 -22 20 -22 -5 -46 l-24 -25 -39 28 c-33 23 -48 27 -105 27 -48 -1 -77
-7 -109 -23 -80 -43 -132 -147 -132 -266 1 -105 56 -187 137 -202 48 -9 127
10 167 41 l33 25 22 -24 22 -23 -32 -27 c-62 -53 -108 -70 -189 -70 -59 -1
-84 4 -117 21 -93 50 -139 149 -131 282 12 173 111 303 262 342 48 13 138 3
182 -19z m1960 0 c21 -11 47 -29 57 -40 16 -17 16 -23 5 -41 -19 -31 -32 -32
-69 -5 -101 71 -254 22 -314 -101 -73 -148 -24 -334 95 -360 51 -11 126 4 169
35 l39 29 21 -23 22 -23 -36 -32 c-55 -48 -101 -64 -185 -65 -114 -1 -176 38
-221 139 -61 137 -19 329 93 430 90 82 228 106 324 57z m1759 14 c47 -15 105
-59 105 -81 0 -7 -9 -20 -19 -29 -18 -17 -21 -16 -60 9 -77 51 -175 43 -249
-21 -52 -44 -77 -91 -92 -173 -18 -103 13 -204 78 -247 19 -13 45 -19 92 -18
63 0 90 9 147 50 20 15 23 14 39 -12 18 -26 18 -27 -11 -51 -140 -116 -338
-84 -412 66 -25 52 -30 205 -8 274 35 111 112 192 218 228 64 22 109 23 172 5z
m-3275 -2 c0 -12 -60 -499 -65 -531 l-6 -33 126 0 c117 0 125 -1 125 -19 0
-51 -1 -51 -176 -51 -124 0 -164 3 -164 13 -1 6 16 150 37 320 l37 307 43 0
c24 0 43 -3 43 -6z m870 -29 l0 -35 -140 0 c-160 0 -143 12 -155 -110 -3 -36
-9 -75 -12 -87 -5 -23 -4 -23 109 -23 l115 0 -5 -30 -4 -30 -113 0 -112 0 -7
-67 c-4 -38 -10 -87 -13 -110 l-6 -43 137 0 136 0 0 -35 0 -35 -185 0 -186 0
5 33 c3 17 19 147 36 287 17 140 33 270 36 288 l5 32 179 0 180 0 0 -35z
m1398 3 l-3 -33 -92 -3 c-87 -3 -93 -4 -98 -25 -5 -24 -65 -518 -65 -536 0 -6
-19 -11 -45 -11 l-45 0 5 38 c3 20 17 132 30 247 14 116 28 227 31 248 l6 37
-97 0 c-84 0 -96 2 -91 16 3 9 6 24 6 35 0 18 10 19 231 19 l230 0 -3 -32z
m348 0 c-3 -18 -20 -152 -36 -298 -17 -146 -33 -275 -36 -287 -4 -20 -11 -23
-47 -23 l-43 0 28 228 c15 125 32 269 39 320 l11 92 45 0 44 0 -5 -32z m-4452
-775 c-4 -32 -12 -96 -18 -143 l-11 -85 -587 -3 -587 -2 -6 -33 c-6 -36 -105
-843 -105 -858 0 -5 188 -9 468 -9 258 0 471 -2 473 -5 4 -3 -24 -253 -30
-272 -1 -2 -215 -3 -476 -3 -429 0 -475 -2 -475 -16 0 -18 -97 -817 -106 -876
l-6 -38 592 0 592 0 -6 -27 c-3 -16 -10 -71 -16 -123 -6 -52 -13 -105 -16
-117 l-4 -23 -766 0 -765 0 6 33 c5 32 325 2637 325 2650 0 4 345 7 766 7
l765 0 -7 -57z m1747 -2264 c21 -7 54 -25 73 -41 35 -29 36 -30 18 -53 -22
-31 -34 -31 -80 -1 -50 33 -100 41 -164 26 -183 -44 -265 -361 -127 -492 63
-60 168 -61 246 -2 39 30 48 30 67 2 14 -20 14 -24 -2 -41 -36 -40 -114 -70
-193 -75 -67 -4 -84 -1 -132 21 -95 43 -147 142 -147 278 0 179 105 332 260
380 39 11 138 10 181 -2z m2172 -5 c61 -21 128 -93 152 -163 13 -41 16 -75 13
-149 -3 -84 -8 -106 -36 -163 -57 -118 -157 -188 -282 -197 -118 -8 -203 34
-252 124 -90 166 -27 419 129 515 78 49 191 62 276 33z m2180 -17 c58 -34 62
-42 43 -72 -18 -28 -47 -32 -66 -11 -22 28 -97 49 -147 42 -141 -19 -231 -157
-221 -336 6 -101 37 -158 104 -190 54 -27 127 -23 177 9 70 45 75 46 96 20
l20 -24 -32 -27 c-69 -59 -195 -84 -291 -57 -52 14 -119 79 -147 142 -32 73
-32 216 0 300 41 105 118 185 213 219 78 27 190 21 251 -15z m-5913 8 c0 -17
-57 -491 -66 -547 l-6 -38 132 0 131 0 -3 -32 -3 -33 -177 -3 c-98 -1 -178 0
-178 3 0 2 18 151 40 330 22 179 40 328 40 330 0 3 20 5 45 5 33 0 45 -4 45
-15z m916 -1 c-3 -9 -6 -24 -6 -35 0 -18 -9 -19 -144 -19 -164 0 -150 8 -160
-95 -4 -33 -9 -77 -12 -97 l-6 -38 116 0 116 0 0 -35 0 -35 -120 0 c-67 0
-120 -4 -120 -9 0 -12 -19 -157 -25 -193 l-4 -28 144 0 145 0 0 -35 0 -35
-196 0 -196 0 5 23 c3 12 22 163 43 335 l37 312 195 0 c173 0 193 -2 188 -16z
m1464 -6 c0 -42 -12 -47 -110 -50 l-94 -3 -37 -295 c-21 -162 -38 -296 -38
-297 -1 -2 -21 -3 -46 -3 l-46 0 6 33 c8 47 65 530 65 550 0 15 -12 17 -95 17
l-95 0 0 35 0 35 245 0 245 0 0 -22z m583 -6 c60 -38 83 -102 66 -184 -13 -58
-75 -132 -124 -148 -19 -6 -35 -13 -35 -14 0 -3 64 -123 131 -243 l29 -53 -54
0 -54 0 -62 123 c-76 149 -83 157 -130 157 l-37 0 -12 -102 c-23 -193 -17
-178 -67 -178 -24 0 -44 5 -44 11 0 15 69 589 76 627 l5 34 137 -4 c123 -3
141 -5 175 -26z m1487 -227 c79 -140 145 -254 146 -252 1 1 14 99 28 217 39
321 31 290 77 290 27 0 39 -4 39 -15 0 -18 -68 -578 -75 -622 -5 -30 -9 -33
-40 -33 -34 0 -34 1 -151 208 -163 289 -166 293 -171 288 -4 -4 -63 -454 -63
-483 0 -8 -15 -13 -40 -13 -31 0 -40 4 -40 18 0 22 71 623 76 640 2 6 19 12
37 12 l34 0 143 -255z m716 218 c-7 -47 -76 -610 -76 -623 0 -6 -20 -10 -45
-10 -39 0 -45 3 -45 21 0 28 70 620 75 637 3 7 22 12 51 12 l46 0 -6 -37z"/>
<path d="M7026 3446 c-84 -32 -136 -94 -162 -195 -33 -131 -3 -260 73 -311 70
-47 196 -27 260 42 12 12 34 50 50 83 24 52 28 72 28 155 0 109 -17 154 -76
202 -44 35 -116 45 -173 24z"/>
<path d="M6191 3353 c-7 -54 -14 -110 -17 -125 -6 -28 -5 -28 48 -28 117 0
177 42 186 129 8 87 -35 121 -154 121 l-52 0 -11 -97z"/>
</g>
</svg>
