<svg id="visual" viewBox="0 0 900 540" width="900" height="540" xmlns="http://www.w3.org/2000/svg"
    xmlns:xlink="http://www.w3.org/1999/xlink" version="1.1">
    <rect x="0" y="0" width="900" height="540" fill="#360091"></rect>
    <g transform="translate(453.0999352527407 295.0644030530613)">
        <path
            d="M116.5 -147.1C159.3 -129.2 208 -106.3 212.7 -73.5C217.5 -40.6 178.2 2.3 154.9 43C131.6 83.7 124.3 122.4 101.1 126.1C78 129.8 39 98.7 2.3 95.6C-34.5 92.5 -69 117.4 -102.9 117.2C-136.8 117 -170.2 91.5 -193 54.8C-215.9 18 -228.3 -30.1 -211.6 -64.8C-194.9 -99.6 -149.2 -121 -109.1 -139.8C-69 -158.6 -34.5 -174.8 1.2 -176.4C36.8 -178 73.7 -165.1 116.5 -147.1"
            fill="#0fb08d"></path>
    </g>
</svg>