<svg id="visual" viewBox="0 0 960 300" width="960" height="300" xmlns="http://www.w3.org/2000/svg" xmlns:xlink="http://www.w3.org/1999/xlink" version="1.1"><rect x="0" y="0" width="960" height="300" fill="#45d4e6"></rect><path d="M0 155L12.3 160.2C24.7 165.3 49.3 175.7 74 179.5C98.7 183.3 123.3 180.7 148 171.5C172.7 162.3 197.3 146.7 221.8 139.7C246.3 132.7 270.7 134.3 295.2 140.2C319.7 146 344.3 156 369 161C393.7 166 418.3 166 443 162.8C467.7 159.7 492.3 153.3 517 150.8C541.7 148.3 566.3 149.7 591 153.2C615.7 156.7 640.3 162.3 664.8 163.7C689.3 165 713.7 162 738.2 160C762.7 158 787.3 157 812 158.3C836.7 159.7 861.3 163.3 886 164.7C910.7 166 935.3 165 947.7 164.5L960 164L960 301L947.7 301C935.3 301 910.7 301 886 301C861.3 301 836.7 301 812 301C787.3 301 762.7 301 738.2 301C713.7 301 689.3 301 664.8 301C640.3 301 615.7 301 591 301C566.3 301 541.7 301 517 301C492.3 301 467.7 301 443 301C418.3 301 393.7 301 369 301C344.3 301 319.7 301 295.2 301C270.7 301 246.3 301 221.8 301C197.3 301 172.7 301 148 301C123.3 301 98.7 301 74 301C49.3 301 24.7 301 12.3 301L0 301Z" fill="#0e2ac5"></path><path d="M0 181L12.3 177.3C24.7 173.7 49.3 166.3 74 164.7C98.7 163 123.3 167 148 170.5C172.7 174 197.3 177 221.8 180.2C246.3 183.3 270.7 186.7 295.2 185.3C319.7 184 344.3 178 369 178.8C393.7 179.7 418.3 187.3 443 183C467.7 178.7 492.3 162.3 517 161.3C541.7 160.3 566.3 174.7 591 182.5C615.7 190.3 640.3 191.7 664.8 193.3C689.3 195 713.7 197 738.2 195C762.7 193 787.3 187 812 186.3C836.7 185.7 861.3 190.3 886 191.7C910.7 193 935.3 191 947.7 190L960 189L960 301L947.7 301C935.3 301 910.7 301 886 301C861.3 301 836.7 301 812 301C787.3 301 762.7 301 738.2 301C713.7 301 689.3 301 664.8 301C640.3 301 615.7 301 591 301C566.3 301 541.7 301 517 301C492.3 301 467.7 301 443 301C418.3 301 393.7 301 369 301C344.3 301 319.7 301 295.2 301C270.7 301 246.3 301 221.8 301C197.3 301 172.7 301 148 301C123.3 301 98.7 301 74 301C49.3 301 24.7 301 12.3 301L0 301Z" fill="#5629c8"></path><path d="M0 188L12.3 187.2C24.7 186.3 49.3 184.7 74 183.7C98.7 182.7 123.3 182.3 148 182C172.7 181.7 197.3 181.3 221.8 179.8C246.3 178.3 270.7 175.7 295.2 181.2C319.7 186.7 344.3 200.3 369 204C393.7 207.7 418.3 201.3 443 200.5C467.7 199.7 492.3 204.3 517 202.2C541.7 200 566.3 191 591 186.5C615.7 182 640.3 182 664.8 182.3C689.3 182.7 713.7 183.3 738.2 182.8C762.7 182.3 787.3 180.7 812 180.2C836.7 179.7 861.3 180.3 886 179.5C910.7 178.7 935.3 176.3 947.7 175.2L960 174L960 301L947.7 301C935.3 301 910.7 301 886 301C861.3 301 836.7 301 812 301C787.3 301 762.7 301 738.2 301C713.7 301 689.3 301 664.8 301C640.3 301 615.7 301 591 301C566.3 301 541.7 301 517 301C492.3 301 467.7 301 443 301C418.3 301 393.7 301 369 301C344.3 301 319.7 301 295.2 301C270.7 301 246.3 301 221.8 301C197.3 301 172.7 301 148 301C123.3 301 98.7 301 74 301C49.3 301 24.7 301 12.3 301L0 301Z" fill="#7c28cb"></path><path d="M0 209L12.3 212.5C24.7 216 49.3 223 74 224.2C98.7 225.3 123.3 220.7 148 221C172.7 221.3 197.3 226.7 221.8 223.5C246.3 220.3 270.7 208.7 295.2 205.7C319.7 202.7 344.3 208.3 369 213.8C393.7 219.3 418.3 224.7 443 227.7C467.7 230.7 492.3 231.3 517 227C541.7 222.7 566.3 213.3 591 209.5C615.7 205.7 640.3 207.3 664.8 211C689.3 214.7 713.7 220.3 738.2 218.5C762.7 216.7 787.3 207.3 812 202.7C836.7 198 861.3 198 886 204.2C910.7 210.3 935.3 222.7 947.7 228.8L960 235L960 301L947.7 301C935.3 301 910.7 301 886 301C861.3 301 836.7 301 812 301C787.3 301 762.7 301 738.2 301C713.7 301 689.3 301 664.8 301C640.3 301 615.7 301 591 301C566.3 301 541.7 301 517 301C492.3 301 467.7 301 443 301C418.3 301 393.7 301 369 301C344.3 301 319.7 301 295.2 301C270.7 301 246.3 301 221.8 301C197.3 301 172.7 301 148 301C123.3 301 98.7 301 74 301C49.3 301 24.7 301 12.3 301L0 301Z" fill="#9c28cc"></path><path d="M0 225L12.3 223.8C24.7 222.7 49.3 220.3 74 219.3C98.7 218.3 123.3 218.7 148 219.8C172.7 221 197.3 223 221.8 228.5C246.3 234 270.7 243 295.2 243.8C319.7 244.7 344.3 237.3 369 232.2C393.7 227 418.3 224 443 221.5C467.7 219 492.3 217 517 220.2C541.7 223.3 566.3 231.7 591 232.7C615.7 233.7 640.3 227.3 664.8 227.5C689.3 227.7 713.7 234.3 738.2 234.2C762.7 234 787.3 227 812 223.3C836.7 219.7 861.3 219.3 886 223.8C910.7 228.3 935.3 237.7 947.7 242.3L960 247L960 301L947.7 301C935.3 301 910.7 301 886 301C861.3 301 836.7 301 812 301C787.3 301 762.7 301 738.2 301C713.7 301 689.3 301 664.8 301C640.3 301 615.7 301 591 301C566.3 301 541.7 301 517 301C492.3 301 467.7 301 443 301C418.3 301 393.7 301 369 301C344.3 301 319.7 301 295.2 301C270.7 301 246.3 301 221.8 301C197.3 301 172.7 301 148 301C123.3 301 98.7 301 74 301C49.3 301 24.7 301 12.3 301L0 301Z" fill="#b82acd"></path><path d="M0 258L12.3 257.3C24.7 256.7 49.3 255.3 74 254.7C98.7 254 123.3 254 148 254.8C172.7 255.7 197.3 257.3 221.8 255.8C246.3 254.3 270.7 249.7 295.2 248.3C319.7 247 344.3 249 369 251.8C393.7 254.7 418.3 258.3 443 257C467.7 255.7 492.3 249.3 517 245.7C541.7 242 566.3 241 591 244.3C615.7 247.7 640.3 255.3 664.8 259.2C689.3 263 713.7 263 738.2 261.8C762.7 260.7 787.3 258.3 812 254C836.7 249.7 861.3 243.3 886 241.7C910.7 240 935.3 243 947.7 244.5L960 246L960 301L947.7 301C935.3 301 910.7 301 886 301C861.3 301 836.7 301 812 301C787.3 301 762.7 301 738.2 301C713.7 301 689.3 301 664.8 301C640.3 301 615.7 301 591 301C566.3 301 541.7 301 517 301C492.3 301 467.7 301 443 301C418.3 301 393.7 301 369 301C344.3 301 319.7 301 295.2 301C270.7 301 246.3 301 221.8 301C197.3 301 172.7 301 148 301C123.3 301 98.7 301 74 301C49.3 301 24.7 301 12.3 301L0 301Z" fill="#d32ecd"></path><path d="M0 270L12.3 272.2C24.7 274.3 49.3 278.7 74 281.2C98.7 283.7 123.3 284.3 148 281.5C172.7 278.7 197.3 272.3 221.8 272.5C246.3 272.7 270.7 279.3 295.2 281.7C319.7 284 344.3 282 369 281.8C393.7 281.7 418.3 283.3 443 280C467.7 276.7 492.3 268.3 517 267.5C541.7 266.7 566.3 273.3 591 276.7C615.7 280 640.3 280 664.8 280.2C689.3 280.3 713.7 280.7 738.2 279.2C762.7 277.7 787.3 274.3 812 272.7C836.7 271 861.3 271 886 270.8C910.7 270.7 935.3 270.3 947.7 270.2L960 270L960 301L947.7 301C935.3 301 910.7 301 886 301C861.3 301 836.7 301 812 301C787.3 301 762.7 301 738.2 301C713.7 301 689.3 301 664.8 301C640.3 301 615.7 301 591 301C566.3 301 541.7 301 517 301C492.3 301 467.7 301 443 301C418.3 301 393.7 301 369 301C344.3 301 319.7 301 295.2 301C270.7 301 246.3 301 221.8 301C197.3 301 172.7 301 148 301C123.3 301 98.7 301 74 301C49.3 301 24.7 301 12.3 301L0 301Z" fill="#eb35cd"></path></svg>