<svg id="visual" viewBox="0 0 960 300" width="960" height="300" xmlns="http://www.w3.org/2000/svg"
    xmlns:xlink="http://www.w3.org/1999/xlink" version="1.1">
    <rect x="0" y="0" width="960" height="300" fill="#360091"></rect>
    <path
        d="M0 141L160 163L320 152L480 142L640 159L800 145L960 133L960 301L800 301L640 301L480 301L320 301L160 301L0 301Z"
        fill="#0066ff"></path>
    <path
        d="M0 197L160 185L320 208L480 188L640 197L800 180L960 172L960 301L800 301L640 301L480 301L320 301L160 301L0 301Z"
        fill="#0095ff"></path>
    <path
        d="M0 209L160 219L320 221L480 229L640 204L800 220L960 220L960 301L800 301L640 301L480 301L320 301L160 301L0 301Z"
        fill="#00b9fb"></path>
    <path
        d="M0 245L160 263L320 271L480 262L640 252L800 269L960 262L960 301L800 301L640 301L480 301L320 301L160 301L0 301Z"
        fill="#45d4e6"></path>
</svg>