<svg id="visual" viewBox="0 0 960 300" width="960" height="300" xmlns="http://www.w3.org/2000/svg" xmlns:xlink="http://www.w3.org/1999/xlink" version="1.1"><rect x="0" y="0" width="960" height="300" fill="#45d4e6"></rect><path d="M0 152L20 151.7C40 151.3 80 150.7 120 156C160 161.3 200 172.7 240 170C280 167.3 320 150.7 360 151.2C400 151.7 440 169.3 480 172.2C520 175 560 163 600 160C640 157 680 163 720 159.5C760 156 800 143 840 137.5C880 132 920 134 940 135L960 136L960 301L940 301C920 301 880 301 840 301C800 301 760 301 720 301C680 301 640 301 600 301C560 301 520 301 480 301C440 301 400 301 360 301C320 301 280 301 240 301C200 301 160 301 120 301C80 301 40 301 20 301L0 301Z" fill="#6600ff"></path><path d="M0 169L20 171.3C40 173.7 80 178.3 120 185.3C160 192.3 200 201.7 240 204.5C280 207.3 320 203.7 360 205.7C400 207.7 440 215.3 480 211C520 206.7 560 190.3 600 182.5C640 174.7 680 175.3 720 183C760 190.7 800 205.3 840 203.5C880 201.7 920 183.3 940 174.2L960 165L960 301L940 301C920 301 880 301 840 301C800 301 760 301 720 301C680 301 640 301 600 301C560 301 520 301 480 301C440 301 400 301 360 301C320 301 280 301 240 301C200 301 160 301 120 301C80 301 40 301 20 301L0 301Z" fill="#e100a7"></path><path d="M0 225L20 225.2C40 225.3 80 225.7 120 227.3C160 229 200 232 240 232.2C280 232.3 320 229.7 360 229.8C400 230 440 233 480 234.5C520 236 560 236 600 231.3C640 226.7 680 217.3 720 211.7C760 206 800 204 840 204C880 204 920 206 940 207L960 208L960 301L940 301C920 301 880 301 840 301C800 301 760 301 720 301C680 301 640 301 600 301C560 301 520 301 480 301C440 301 400 301 360 301C320 301 280 301 240 301C200 301 160 301 120 301C80 301 40 301 20 301L0 301Z" fill="#f2266d"></path><path d="M0 256L20 256.5C40 257 80 258 120 258C160 258 200 257 240 258.5C280 260 320 264 360 267.3C400 270.7 440 273.3 480 269.5C520 265.7 560 255.3 600 250.7C640 246 680 247 720 246.8C760 246.7 800 245.3 840 246.3C880 247.3 920 250.7 940 252.3L960 254L960 301L940 301C920 301 880 301 840 301C800 301 760 301 720 301C680 301 640 301 600 301C560 301 520 301 480 301C440 301 400 301 360 301C320 301 280 301 240 301C200 301 160 301 120 301C80 301 40 301 20 301L0 301Z" fill="#e65745"></path></svg>