<svg id="visual" viewBox="0 0 960 300" width="960" height="300" xmlns="http://www.w3.org/2000/svg" xmlns:xlink="http://www.w3.org/1999/xlink" version="1.1"><rect x="0" y="0" width="960" height="300" fill="#45d4e6"></rect><path d="M0 167L20 158.5C40 150 80 133 120 125.2C160 117.3 200 118.7 240 122.3C280 126 320 132 360 132.5C400 133 440 128 480 127.5C520 127 560 131 600 141.7C640 152.3 680 169.7 720 170C760 170.3 800 153.7 840 143C880 132.3 920 127.7 940 125.3L960 123L960 301L940 301C920 301 880 301 840 301C800 301 760 301 720 301C680 301 640 301 600 301C560 301 520 301 480 301C440 301 400 301 360 301C320 301 280 301 240 301C200 301 160 301 120 301C80 301 40 301 20 301L0 301Z" fill="#6600ff"></path><path d="M0 142L20 144.2C40 146.3 80 150.7 120 150.7C160 150.7 200 146.3 240 151.5C280 156.7 320 171.3 360 175.5C400 179.7 440 173.3 480 173.5C520 173.7 560 180.3 600 180C640 179.7 680 172.3 720 166.3C760 160.3 800 155.7 840 160C880 164.3 920 177.7 940 184.3L960 191L960 301L940 301C920 301 880 301 840 301C800 301 760 301 720 301C680 301 640 301 600 301C560 301 520 301 480 301C440 301 400 301 360 301C320 301 280 301 240 301C200 301 160 301 120 301C80 301 40 301 20 301L0 301Z" fill="#bd00d1"></path><path d="M0 220L20 215.7C40 211.3 80 202.7 120 197.5C160 192.3 200 190.7 240 188C280 185.3 320 181.7 360 184C400 186.3 440 194.7 480 193.7C520 192.7 560 182.3 600 181.3C640 180.3 680 188.7 720 197.5C760 206.3 800 215.7 840 211.2C880 206.7 920 188.3 940 179.2L960 170L960 301L940 301C920 301 880 301 840 301C800 301 760 301 720 301C680 301 640 301 600 301C560 301 520 301 480 301C440 301 400 301 360 301C320 301 280 301 240 301C200 301 160 301 120 301C80 301 40 301 20 301L0 301Z" fill="#e100a7"></path><path d="M0 219L20 213.7C40 208.3 80 197.7 120 201.2C160 204.7 200 222.3 240 222.3C280 222.3 320 204.7 360 200.8C400 197 440 207 480 209.3C520 211.7 560 206.3 600 206C640 205.7 680 210.3 720 213.8C760 217.3 800 219.7 840 220.5C880 221.3 920 220.7 940 220.3L960 220L960 301L940 301C920 301 880 301 840 301C800 301 760 301 720 301C680 301 640 301 600 301C560 301 520 301 480 301C440 301 400 301 360 301C320 301 280 301 240 301C200 301 160 301 120 301C80 301 40 301 20 301L0 301Z" fill="#ef0087"></path><path d="M0 221L20 223C40 225 80 229 120 227.2C160 225.3 200 217.7 240 219C280 220.3 320 230.7 360 238.2C400 245.7 440 250.3 480 251.7C520 253 560 251 600 251C640 251 680 253 720 246.7C760 240.3 800 225.7 840 219C880 212.3 920 213.7 940 214.3L960 215L960 301L940 301C920 301 880 301 840 301C800 301 760 301 720 301C680 301 640 301 600 301C560 301 520 301 480 301C440 301 400 301 360 301C320 301 280 301 240 301C200 301 160 301 120 301C80 301 40 301 20 301L0 301Z" fill="#f2266d"></path><path d="M0 241L20 245C40 249 80 257 120 256.8C160 256.7 200 248.3 240 244.3C280 240.3 320 240.7 360 244.7C400 248.7 440 256.3 480 261.2C520 266 560 268 600 264.2C640 260.3 680 250.7 720 248.7C760 246.7 800 252.3 840 253.5C880 254.7 920 251.3 940 249.7L960 248L960 301L940 301C920 301 880 301 840 301C800 301 760 301 720 301C680 301 640 301 600 301C560 301 520 301 480 301C440 301 400 301 360 301C320 301 280 301 240 301C200 301 160 301 120 301C80 301 40 301 20 301L0 301Z" fill="#ee4157"></path><path d="M0 263L20 266C40 269 80 275 120 275.5C160 276 200 271 240 267.5C280 264 320 262 360 262.5C400 263 440 266 480 270C520 274 560 279 600 279.7C640 280.3 680 276.7 720 273.2C760 269.7 800 266.3 840 267.5C880 268.7 920 274.3 940 277.2L960 280L960 301L940 301C920 301 880 301 840 301C800 301 760 301 720 301C680 301 640 301 600 301C560 301 520 301 480 301C440 301 400 301 360 301C320 301 280 301 240 301C200 301 160 301 120 301C80 301 40 301 20 301L0 301Z" fill="#e65745"></path></svg>